{
  "accessors": [
    {
      "bufferView": 2,
      "componentType": 5126,
      "count": 8788,
      "max": [
        1.155900001525879,
        0.6249499917030334,
        3.1352641582489014
      ],
      "min": [
        -1.155900001525879,
        -0.6820799708366394,
        0.015364017337560654
      ],
      "type": "VEC3"
    },
    {
      "bufferView": 2,
      "byteOffset": 105456,
      "componentType": 5126,
      "count": 8788,
      "max": [
        0.9999889731407166,
        0.9999895691871643,
        1.0
      ],
      "min": [
        -0.9999889731407166,
        -0.9999919533729553,
        -1.0
      ],
      "type": "VEC3"
    },
    {
      "bufferView": 1,
      "componentType": 5125,
      "count": 52128,
      "type": "SCALAR"
    },
    {
      "bufferView": 2,
      "byteOffset": 210912,
      "componentType": 5126,
      "count": 1001,
      "max": [
        0.3686099946498871,
        -0.44137999415397644,
        2.5410940647125244
      ],
      "min": [
        -0.3686099946498871,
        -0.6039100289344788,
        1.902743935585022
      ],
      "type": "VEC3"
    },
    {
      "bufferView": 2,
      "byteOffset": 222924,
      "componentType": 5126,
      "count": 1001,
      "max": [
        0.9995074272155762,
        0.9534221291542053,
        0.996856153011322
      ],
      "min": [
        -0.9995074272155762,
        -0.9999890923500061,
        -0.9905625581741333
      ],
      "type": "VEC3"
    },
    {
      "bufferView": 1,
      "byteOffset": 208512,
      "componentType": 5125,
      "count": 3168,
      "type": "SCALAR"
    },
    {
      "bufferView": 2,
      "byteOffset": 234936,
      "componentType": 5126,
      "count": 2082,
      "max": [
        1.0336400270462036,
        0.8549000024795532,
        2.2418642044067383
      ],
      "min": [
        -1.0336400270462036,
        -0.5601199865341187,
        0.10823401808738708
      ],
      "type": "VEC3"
    },
    {
      "bufferView": 2,
      "byteOffset": 259920,
      "componentType": 5126,
      "count": 2082,
      "max": [
        0.9990344047546387,
        0.9991925358772278,
        0.9999999403953552
      ],
      "min": [
        -0.9990344047546387,
        -0.9995912313461304,
        -1.0
      ],
      "type": "VEC3"
    },
    {
      "bufferView": 1,
      "byteOffset": 221184,
      "componentType": 5125,
      "count": 10392,
      "type": "SCALAR"
    },
    {
      "bufferView": 4,
      "componentType": 5126,
      "count": 37,
      "max": [
        1.9562300443649292,
        1.6964818239212036,
        1.1660109758377075,
        0.0,
        1.0823429822921753,
        1.9562300443649292,
        1.761839509010315,
        0.0,
        1.4996654987335205,
        1.9562300443649292,
        1.9562300443649292,
        0.0,
        3.5739901065826416,
        2.3822100162506104,
        4.581160068511963,
        1.0
      ],
      "min": [
        -1.9562300443649292,
        -1.7244364023208618,
        -1.0638761520385742,
        0.0,
        -1.0597094297409058,
        -1.9562300443649292,
        -1.9562300443649292,
        0.0,
        -1.453733205795288,
        -1.656496524810791,
        -1.9562300443649292,
        0.0,
        -3.6374599933624268,
        -4.066840171813965,
        -4.581699848175049,
        1.0
      ],
      "type": "MAT4"
    },
    {
      "bufferView": 0,
      "componentType": 5123,
      "count": 8788,
      "type": "VEC4"
    },
    {
      "bufferView": 3,
      "componentType": 5126,
      "count": 8788,
      "max": [
        1.0,
        0.49905791878700256,
        0.2976810932159424,
        0.22563384473323822
      ],
      "min": [
        0.0,
        0.0,
        0.0,
        0.0
      ],
      "type": "VEC4"
    },
    {
      "bufferView": 0,
      "byteOffset": 70304,
      "componentType": 5123,
      "count": 1001,
      "type": "VEC4"
    },
    {
      "bufferView": 3,
      "byteOffset": 140608,
      "componentType": 5126,
      "count": 1001,
      "max": [
        1.0,
        0.40315601229667664,
        0.26617667078971863,
        0.1976318061351776
      ],
      "min": [
        0.0,
        0.0,
        0.0,
        0.0
      ],
      "type": "VEC4"
    },
    {
      "bufferView": 0,
      "byteOffset": 78312,
      "componentType": 5123,
      "count": 2082,
      "type": "VEC4"
    },
    {
      "bufferView": 3,
      "byteOffset": 156624,
      "componentType": 5126,
      "count": 2082,
      "max": [
        1.0,
        0.4928346574306488,
        0.32071131467819214,
        0.15563063323497772
      ],
      "min": [
        0.0,
        0.0,
        0.0,
        0.0
      ],
      "type": "VEC4"
    }
  ],
  "asset": {
    "extras": {
      "author": "Helyx Silveira (https://sketchfab.com/helyxsilveira)",
      "license": "CC-BY-4.0 (http://creativecommons.org/licenses/by/4.0/)",
      "source": "https://sketchfab.com/3d-models/sausage-doctor-1c99ffcf36ee4acca2afc57d945f28b5",
      "title": "Sausage Doctor"
    },
    "generator": "Sketchfab-12.68.0",
    "version": "2.0"
  },
  "bufferViews": [
    {
      "buffer": 0,
      "byteLength": 94968,
      "byteStride": 8,
      "name": "shortBufferViews",
      "target": 34962
    },
    {
      "buffer": 0,
      "byteLength": 262752,
      "byteOffset": 94968,
      "name": "floatBufferViews",
      "target": 34963
    },
    {
      "buffer": 0,
      "byteLength": 284904,
      "byteOffset": 357720,
      "byteStride": 12,
      "name": "floatBufferViews",
      "target": 34962
    },
    {
      "buffer": 0,
      "byteLength": 189936,
      "byteOffset": 642624,
      "byteStride": 16,
      "name": "floatBufferViews",
      "target": 34962
    },
    {
      "buffer": 0,
      "byteLength": 2368,
      "byteOffset": 832560,
      "name": "floatBufferViews"
    }
  ],
  "buffers": [
    {
      "byteLength": 834928,
      "uri": "scene.bin"
    }
  ],
  "materials": [
    {
      "doubleSided": true,
      "name": "Salsicha",
      "pbrMetallicRoughness": {
        "baseColorFactor": [
          0.8000000715,
          0.2349883318,
          0.0779825523,
          1.0
        ],
        "metallicFactor": 0.0834291593,
        "roughnessFactor": 0.3261816235
      }
    },
    {
      "doubleSided": true,
      "name": "Olhos",
      "pbrMetallicRoughness": {
        "baseColorFactor": [
          0.0331026092,
          0.0331026092,
          0.0331026092,
          1.0
        ],
        "roughnessFactor": 0.9815744578
      }
    },
    {
      "doubleSided": true,
      "name": "Jaleco",
      "pbrMetallicRoughness": {
        "metallicFactor": 0.0,
        "roughnessFactor": 0.8748019398
      }
    }
  ],
  "meshes": [
    {
      "name": "sausage_doctor",
      "primitives": [
        {
          "attributes": {
            "JOINTS_0": 10,
            "NORMAL": 1,
            "POSITION": 0,
            "WEIGHTS_0": 11
          },
          "indices": 2,
          "material": 0,
          "mode": 4
        }
      ]
    },
    {
      "name": "sausage_doctor",
      "primitives": [
        {
          "attributes": {
            "JOINTS_0": 12,
            "NORMAL": 4,
            "POSITION": 3,
            "WEIGHTS_0": 13
          },
          "indices": 5,
          "material": 1,
          "mode": 4
        }
      ]
    },
    {
      "name": "sausage_doctor",
      "primitives": [
        {
          "attributes": {
            "JOINTS_0": 14,
            "NORMAL": 7,
            "POSITION": 6,
            "WEIGHTS_0": 15
          },
          "indices": 8,
          "material": 2,
          "mode": 4
        }
      ]
    }
  ],
  "nodes": [
    {
      "children": [
        1
      ],
      "matrix": [
        1.0,
        0.0,
        0.0,
        0.0,
        0.0,
        2.220446049250313e-16,
        -1.0,
        0.0,
        0.0,
        1.0,
        2.220446049250313e-16,
        0.0,
        0.0,
        0.0,
        0.0,
        1.0
      ],
      "name": "Sketchfab_model"
    },
    {
      "children": [
        2
      ],
      "name": "Root"
    },
    {
      "children": [
        3,
        41,
        42,
        43,
        40
      ],
      "matrix": [
        0.51119,
        0.0,
        0.0,
        0.0,
        0.0,
        0.51119,
        0.0,
        0.0,
        0.0,
        0.0,
        0.51119,
        0.0,
        0.0,
        0.0,
        0.0,
        1.0
      ],
      "name": "rig"
    },
    {
      "children": [
        4,
        13,
        37
      ],
      "name": "rig_rootJoint"
    },
    {
      "children": [
        5,
        6,
        7,
        8,
        9,
        10,
        11,
        12
      ],
      "name": "main_rig",
      "rotation": [
        1.0,
        0.0,
        0.0,
        0.0
      ],
      "scale": [
        1.0,
        1.0,
        1.0
      ],
      "translation": [
        0.0,
        -0.16380000114440918,
        0.0
      ]
    },
    {
      "name": "IK_pe.L_rig",
      "rotation": [
        0.2810606062412262,
        0.038321249186992645,
        -0.1296195089817047,
        0.9501237869262695
      ],
      "scale": [
        1.0000001192092896,
        1.000003457069397,
        0.9999960660934448
      ],
      "translation": [
        0.7356200218200684,
        0.39386001229286194,
        -0.7488200068473816
      ]
    },
    {
      "name": "IK_pe.R_rig",
      "rotation": [
        0.29473090171813965,
        -0.040208134800195694,
        0.13527387380599976,
        0.9451020956039429
      ],
      "scale": [
        0.9999967217445374,
        1.0000053644180298,
        0.9999947547912598
      ],
      "translation": [
        -0.7501199841499329,
        -0.8890799880027771,
        -0.44132000207901
      ]
    },
    {
      "name": "IK_cotovelo.L_rig",
      "rotation": [
        1.0,
        0.0,
        0.0,
        0.0
      ],
      "scale": [
        1.0,
        1.0,
        1.0
      ],
      "translation": [
        1.368149995803833,
        -1.1434199810028076,
        -3.729379892349243
      ]
    },
    {
      "name": "IK_cotovelo.R_rig",
      "rotation": [
        1.0,
        0.0,
        0.0,
        0.0
      ],
      "scale": [
        1.0,
        1.0,
        1.0
      ],
      "translation": [
        -1.3976800441741943,
        -1.1434199810028076,
        -3.7066400051116943
      ]
    },
    {
      "name": "IK_joelho.L_rig",
      "rotation": [
        0.0,
        1.0,
        0.0,
        0.0
      ],
      "scale": [
        1.0,
        1.0,
        1.0
      ],
      "translation": [
        0.672950029373169,
        2.396359920501709,
        -1.213979959487915
      ]
    },
    {
      "name": "IK_joelho.R_rig",
      "rotation": [
        0.0,
        1.0,
        0.0,
        0.0
      ],
      "scale": [
        1.0,
        1.0,
        1.0
      ],
      "translation": [
        -0.7354000210762024,
        2.396359920501709,
        -1.213979959487915
      ]
    },
    {
      "name": "IK_mao.L_rig",
      "rotation": [
        -0.003915636800229549,
        0.368314653635025,
        -0.04975645989179611,
        0.9283605217933655
      ],
      "scale": [
        1.0000039339065552,
        1.0,
        1.0000050067901611
      ],
      "translation": [
        1.7325400114059448,
        0.16095000505447388,
        -3.5156500339508057
      ]
    },
    {
      "name": "IK_mao.R_rig",
      "rotation": [
        0.29403504729270935,
        -0.2916242182254791,
        -0.00026156508829444647,
        0.9102190136909485
      ],
      "scale": [
        0.9999987483024597,
        1.0000065565109253,
        1.0000025033950806
      ],
      "translation": [
        -2.026550054550171,
        -0.23969000577926636,
        -3.1503500938415527
      ]
    },
    {
      "children": [
        14,
        29,
        33
      ],
      "name": "pelvis_rig",
      "rotation": [
        0.7241684794425964,
        0.0,
        0.0,
        0.6896231770515442
      ],
      "scale": [
        1.0,
        1.0000033378601074,
        1.0000033378601074
      ],
      "translation": [
        0.0,
        0.14079000055789948,
        1.6464300155639648
      ]
    },
    {
      "children": [
        15
      ],
      "name": "abdomen_rig",
      "rotation": [
        0.11032316833734512,
        0.0,
        0.0,
        0.9938957691192627
      ],
      "scale": [
        1.0,
        1.0000025033950806,
        1.0000025033950806
      ],
      "translation": [
        0.0,
        0.8250700235366821,
        0.0
      ]
    },
    {
      "children": [
        16,
        21,
        25
      ],
      "name": "torax_rig",
      "rotation": [
        0.12245166301727295,
        0.0,
        0.0,
        0.9924744963645935
      ],
      "scale": [
        1.0,
        0.9999988079071045,
        0.9999988079071045
      ],
      "translation": [
        0.0,
        0.7173100113868713,
        0.0
      ]
    },
    {
      "children": [
        17
      ],
      "name": "pescoco_rig",
      "rotation": [
        0.06366439163684845,
        0.0,
        0.0,
        0.9979713559150696
      ],
      "scale": [
        1.0,
        0.9999963045120239,
        0.9999963045120239
      ],
      "translation": [
        0.0,
        0.48385998606681824,
        0.0
      ]
    },
    {
      "children": [
        18,
        19,
        20
      ],
      "name": "cabeca_rig",
      "rotation": [
        -0.31593650579452515,
        0.0,
        0.0,
        0.948780357837677
      ],
      "scale": [
        1.0,
        1.000002145767212,
        1.000002145767212
      ],
      "translation": [
        0.0,
        0.6047400236129761,
        0.0
      ]
    },
    {
      "name": "maxilar_rig",
      "rotation": [
        0.8802302479743958,
        0.0,
        0.0,
        0.4745468199253082
      ],
      "scale": [
        1.0,
        0.9999988675117493,
        0.9999988675117493
      ],
      "translation": [
        0.0,
        0.0,
        0.04236999899148941
      ]
    },
    {
      "name": "olho.R_rig",
      "rotation": [
        0.0,
        0.7071068286895752,
        0.7071068286895752,
        0.0
      ],
      "scale": [
        1.0,
        1.0,
        1.0
      ],
      "translation": [
        -0.47951000928878784,
        0.5148599743843079,
        0.25172001123428345
      ]
    },
    {
      "name": "olho.L_rig",
      "rotation": [
        0.0,
        0.7071068286895752,
        0.7071068286895752,
        0.0
      ],
      "scale": [
        1.0,
        1.0,
        1.0
      ],
      "translation": [
        0.4484100043773651,
        0.5148599743843079,
        0.25172001123428345
      ]
    },
    {
      "children": [
        22
      ],
      "name": "clavicula.L_rig",
      "rotation": [
        -0.5593717098236084,
        -0.22458530962467194,
        -0.4876650869846344,
        0.6315438747406006
      ],
      "scale": [
        0.9999967813491821,
        1.0000040531158447,
        0.999999463558197
      ],
      "translation": [
        0.04202000051736832,
        0.7964199781417847,
        -0.4088900089263916
      ]
    },
    {
      "children": [
        23
      ],
      "name": "braco.L_rig",
      "rotation": [
        0.4435889720916748,
        0.8090654015541077,
        0.02308233268558979,
        -0.38484957814216614
      ],
      "scale": [
        1.0000064373016357,
        0.9999975562095642,
        1.0000015497207642
      ],
      "translation": [
        0.05116000026464462,
        0.9626399874687195,
        0.005770000163465738
      ]
    },
    {
      "children": [
        24
      ],
      "name": "antebraco.L_rig",
      "rotation": [
        -0.6035109162330627,
        0.10017378628253937,
        -0.08030273020267487,
        0.7869506478309631
      ],
      "scale": [
        0.9999990463256836,
        0.9999920129776001,
        1.0000020265579224
      ],
      "translation": [
        0.0,
        0.796209990978241,
        0.0
      ]
    },
    {
      "name": "mao.L_rig",
      "rotation": [
        -0.1584613025188446,
        -0.18565227091312408,
        -0.027429994195699692,
        0.9693663120269775
      ],
      "scale": [
        0.9999961853027344,
        1.0000063180923462,
        1.0000044107437134
      ],
      "translation": [
        0.0,
        0.7509599924087524,
        0.0
      ]
    },
    {
      "children": [
        26
      ],
      "name": "clavicula.R_rig",
      "rotation": [
        -0.5516037344932556,
        0.23534898459911346,
        0.493782103061676,
        0.6297010779380798
      ],
      "scale": [
        0.9999969601631165,
        1.0000048875808716,
        0.9999932050704956
      ],
      "translation": [
        -0.04202000051736832,
        0.7964199781417847,
        -0.4088900089263916
      ]
    },
    {
      "children": [
        27
      ],
      "name": "braco.R_rig",
      "rotation": [
        -0.47278979420661926,
        0.7918371558189392,
        0.0019575394690036774,
        0.3866007924079895
      ],
      "scale": [
        0.9999986886978149,
        1.000002145767212,
        0.9999961853027344
      ],
      "translation": [
        -0.052000001072883606,
        1.007830023765564,
        -0.0005099999834783375
      ]
    },
    {
      "children": [
        28
      ],
      "name": "antebraco.R_rig",
      "rotation": [
        -0.23712190985679626,
        -0.12399767339229584,
        0.05824463814496994,
        0.9617719650268555
      ],
      "scale": [
        0.9999947547912598,
        0.9999985098838806,
        1.0000054836273193
      ],
      "translation": [
        0.0,
        0.7924200296401978,
        0.0
      ]
    },
    {
      "name": "mao.R_rig",
      "rotation": [
        -0.31682679057121277,
        0.11929770559072495,
        -0.13450497388839722,
        0.9312880635261536
      ],
      "scale": [
        0.9999963045120239,
        1.0000053644180298,
        0.9999995827674866
      ],
      "translation": [
        0.0,
        0.7479900121688843,
        0.0
      ]
    },
    {
      "children": [
        30
      ],
      "name": "femur.L_rig",
      "rotation": [
        0.8000689148902893,
        0.062096353620290756,
        -0.003087535733357072,
        0.596677839756012
      ],
      "scale": [
        1.0000032186508179,
        0.9999940991401672,
        1.0000001192092896
      ],
      "translation": [
        0.676639974117279,
        0.5095099806785583,
        0.18957999348640442
      ]
    },
    {
      "children": [
        31
      ],
      "name": "canela.L_rig",
      "rotation": [
        0.7586992979049683,
        -0.02088802680373192,
        0.05180990695953369,
        0.649041473865509
      ],
      "scale": [
        0.9999998211860657,
        0.9999982118606567,
        1.0000040531158447
      ],
      "translation": [
        0.0,
        1.1014200448989868,
        0.0
      ]
    },
    {
      "children": [
        32
      ],
      "name": "pe.L_rig",
      "rotation": [
        -0.6745535135269165,
        -0.053464990109205246,
        -0.0959516316652298,
        0.7300084233283997
      ],
      "scale": [
        0.9999997019767761,
        0.9999986886978149,
        1.0000030994415283
      ],
      "translation": [
        0.0,
        1.1759300231933594,
        0.0
      ]
    },
    {
      "name": "pontape.L_rig",
      "rotation": [
        0.005764320492744446,
        0.958907425403595,
        -0.27283975481987,
        0.07760140299797058
      ],
      "scale": [
        1.0000005960464478,
        0.9999990463256836,
        0.9999966025352478
      ],
      "translation": [
        0.0,
        0.6434699892997742,
        0.0
      ]
    },
    {
      "children": [
        34
      ],
      "name": "femur.R_rig",
      "rotation": [
        0.993416965007782,
        -0.05188915878534317,
        0.010871452279388905,
        0.10154853761196136
      ],
      "scale": [
        1.000003457069397,
        0.9999959468841553,
        1.0000016689300537
      ],
      "translation": [
        -0.8102800250053406,
        0.5095099806785583,
        0.18957999348640442
      ]
    },
    {
      "children": [
        35
      ],
      "name": "canela.R_rig",
      "rotation": [
        0.5518450140953064,
        0.07242868095636368,
        -0.06199977546930313,
        0.8284788131713867
      ],
      "scale": [
        0.9999992251396179,
        0.9999961256980896,
        1.0000070333480835
      ],
      "translation": [
        0.0,
        1.1007399559020996,
        0.0
      ]
    },
    {
      "children": [
        36
      ],
      "name": "pe.R_rig",
      "rotation": [
        -0.8367170095443726,
        0.013427040539681911,
        0.05356635898351669,
        0.5448440313339233
      ],
      "scale": [
        0.9999991059303284,
        0.999997079372406,
        1.0000019073486328
      ],
      "translation": [
        0.0,
        1.1637400388717651,
        0.0
      ]
    },
    {
      "name": "pontape.R_rig",
      "rotation": [
        -0.026604216545820236,
        0.9543631672859192,
        -0.2836766839027405,
        -0.0895024836063385
      ],
      "scale": [
        0.9999974370002747,
        1.000001072883606,
        0.9999943375587463
      ],
      "translation": [
        0.0,
        0.6174600124359131,
        0.0
      ]
    },
    {
      "children": [
        38,
        39
      ],
      "name": "IK_visao_rig",
      "rotation": [
        1.0,
        0.0,
        0.0,
        0.0
      ],
      "scale": [
        1.0,
        1.0,
        1.0
      ],
      "translation": [
        0.0,
        -1.358739972114563,
        4.581160068511963
      ]
    },
    {
      "name": "IK_olho.R_rig",
      "rotation": [
        0.0,
        1.0,
        0.0,
        0.0
      ],
      "scale": [
        1.0,
        1.0,
        1.0
      ],
      "translation": [
        -0.47951000928878784,
        0.015060000121593475,
        -0.000539999979082495
      ]
    },
    {
      "name": "IK_olho.L_rig",
      "rotation": [
        0.0,
        1.0,
        0.0,
        0.0
      ],
      "scale": [
        1.0,
        1.0,
        1.0
      ],
      "translation": [
        0.4484100043773651,
        0.015060000121593475,
        -0.000539999979082495
      ]
    },
    {
      "matrix": [
        1.95623,
        0.0,
        0.0,
        0.0,
        0.0,
        1.95623,
        0.0,
        0.0,
        0.0,
        0.0,
        1.95623,
        0.0,
        0.0,
        0.0,
        -0.026010000000000005,
        1.0
      ],
      "name": "sausage_doctor"
    },
    {
      "mesh": 0,
      "name": "sausage_doctor_0",
      "skin": 0
    },
    {
      "mesh": 1,
      "name": "sausage_doctor_1",
      "skin": 0
    },
    {
      "mesh": 2,
      "name": "sausage_doctor_2",
      "skin": 0
    }
  ],
  "scene": 0,
  "scenes": [
    {
      "name": "Sketchfab_Scene",
      "nodes": [
        0
      ]
    }
  ],
  "skins": [
    {
      "inverseBindMatrices": 9,
      "joints": [
        3,
        4,
        5,
        6,
        7,
        8,
        9,
        10,
        11,
        12,
        13,
        14,
        15,
        16,
        17,
        18,
        19,
        20,
        21,
        22,
        23,
        24,
        25,
        26,
        27,
        28,
        29,
        30,
        31,
        32,
        33,
        34,
        35,
        36,
        37,
        38,
        39
      ],
      "skeleton": 3
    }
  ]
}
